<?xml version="1.0" encoding="utf-8"?>
<!-- Generator: Adobe Illustrator 24.3.0, SVG Export Plug-In . SVG Version: 6.00 Build 0)  -->
<svg version="1.1" xmlns="http://www.w3.org/2000/svg" xmlns:xlink="http://www.w3.org/1999/xlink" x="0px" y="0px"
	 viewBox="0 0 500 500" style="enable-background:new 0 0 500 500;" xml:space="preserve">
<style type="text/css">
	.st0{fill:#39BEEC;}
	.st1{fill:#1B60A3;}
	.st2{fill:#FFFFFF;stroke:#FFFFFF;stroke-width:27;stroke-miterlimit:10;}
</style>
<g id="Layer_1">
	<circle class="st0" cx="250.4" cy="137.3" r="109.4"/>
	<circle class="st1" cx="250.4" cy="363.4" r="109.4"/>
</g>
<g id="Layer_3">
</g>
<g id="Layer_4_1_">
</g>
<g id="Layer_2">
	<rect x="125" y="126" class="st2" width="33" height="248"/>
	<rect x="90.5" y="362.8" transform="matrix(0.7071 0.7071 -0.7071 0.7071 322.1484 44.765)" class="st2" width="33" height="97"/>
	
		<rect x="90.5" y="42.2" transform="matrix(-0.7071 0.7071 -0.7071 -0.7071 246.8304 79.2595)" class="st2" width="33" height="97"/>
	<rect x="342" y="126" transform="matrix(-1 -1.224647e-16 1.224647e-16 -1 717 500)" class="st2" width="33" height="248"/>
	
		<rect x="376.5" y="42.2" transform="matrix(-0.7071 -0.7071 0.7071 -0.7071 606.6581 432.786)" class="st2" width="33" height="97"/>
	
		<rect x="376.5" y="362.8" transform="matrix(0.7071 -0.7071 0.7071 0.7071 -175.6906 398.3453)" class="st2" width="33" height="97"/>
</g>
</svg>
